{
	"patcher" : 	{
		"fileversion" : 1,
		"appversion" : 		{
			"major" : 8,
			"minor" : 6,
			"revision" : 0,
			"architecture" : "x64",
			"modernui" : 1
		}
,
		"classnamespace" : "dsp.gen",
		"rect" : [ 134.0, 134.0, 1852.0, 939.0 ],
		"bglocked" : 0,
		"openinpresentation" : 0,
		"default_fontsize" : 12.0,
		"default_fontface" : 0,
		"default_fontname" : "Arial",
		"gridonopen" : 1,
		"gridsize" : [ 15.0, 15.0 ],
		"gridsnaponopen" : 1,
		"objectsnaponopen" : 1,
		"statusbarvisible" : 2,
		"toolbarvisible" : 1,
		"lefttoolbarpinned" : 0,
		"toptoolbarpinned" : 0,
		"righttoolbarpinned" : 0,
		"bottomtoolbarpinned" : 0,
		"toolbars_unpinned_last_save" : 0,
		"tallnewobj" : 0,
		"boxanimatetime" : 200,
		"enablehscroll" : 1,
		"enablevscroll" : 1,
		"devicewidth" : 0.0,
		"description" : "",
		"digest" : "",
		"tags" : "",
		"style" : "",
		"subpatcher_template" : "",
		"assistshowspatchername" : 0,
		"boxes" : [ 			{
				"box" : 				{
					"id" : "obj-3",
					"maxclass" : "newobj",
					"numinlets" : 1,
					"numoutlets" : 1,
					"outlettype" : [ "" ],
					"patching_rect" : [ 74.0, 834.0, 44.0, 22.0 ],
					"text" : "history"
				}

			}
, 			{
				"box" : 				{
					"id" : "obj-1",
					"maxclass" : "newobj",
					"numinlets" : 1,
					"numoutlets" : 1,
					"outlettype" : [ "" ],
					"patching_rect" : [ 456.0, 834.0, 44.0, 22.0 ],
					"text" : "history"
				}

			}
, 			{
				"box" : 				{
					"id" : "obj-15",
					"maxclass" : "newobj",
					"numinlets" : 0,
					"numoutlets" : 1,
					"outlettype" : [ "" ],
					"patching_rect" : [ 859.0, 103.0, 121.0, 22.0 ],
					"text" : "in 8 @comment Ymn"
				}

			}
, 			{
				"box" : 				{
					"id" : "obj-11",
					"maxclass" : "newobj",
					"numinlets" : 0,
					"numoutlets" : 1,
					"outlettype" : [ "" ],
					"patching_rect" : [ 813.0, 38.0, 110.0, 22.0 ],
					"text" : "in 7 @comment Fn"
				}

			}
, 			{
				"box" : 				{
					"id" : "obj-20",
					"maxclass" : "newobj",
					"numinlets" : 0,
					"numoutlets" : 1,
					"outlettype" : [ "" ],
					"patching_rect" : [ 656.0, 76.0, 119.0, 22.0 ],
					"text" : "in 6 @comment zeta"
				}

			}
, 			{
				"box" : 				{
					"id" : "obj-19",
					"maxclass" : "newobj",
					"numinlets" : 0,
					"numoutlets" : 1,
					"outlettype" : [ "" ],
					"patching_rect" : [ 637.0, 38.0, 136.0, 22.0 ],
					"text" : "in 5 @comment gamma"
				}

			}
, 			{
				"box" : 				{
					"id" : "obj-18",
					"maxclass" : "newobj",
					"numinlets" : 0,
					"numoutlets" : 1,
					"outlettype" : [ "" ],
					"patching_rect" : [ 503.0, 85.0, 111.0, 22.0 ],
					"text" : "in 4 @comment w1"
				}

			}
, 			{
				"box" : 				{
					"id" : "obj-17",
					"maxclass" : "newobj",
					"numinlets" : 0,
					"numoutlets" : 1,
					"outlettype" : [ "" ],
					"patching_rect" : [ 422.5, 38.0, 111.0, 22.0 ],
					"text" : "in 3 @comment wn"
				}

			}
, 			{
				"box" : 				{
					"id" : "obj-12",
					"maxclass" : "newobj",
					"numinlets" : 1,
					"numoutlets" : 0,
					"patching_rect" : [ 837.0, 844.0, 35.0, 22.0 ],
					"text" : "out 3"
				}

			}
, 			{
				"box" : 				{
					"id" : "obj-14",
					"maxclass" : "newobj",
					"numinlets" : 0,
					"numoutlets" : 1,
					"outlettype" : [ "" ],
					"patching_rect" : [ 80.0, 38.0, 160.0, 22.0 ],
					"text" : "in 1 @comment perturbation"
				}

			}
, 			{
				"box" : 				{
					"id" : "obj-13",
					"maxclass" : "newobj",
					"numinlets" : 0,
					"numoutlets" : 1,
					"outlettype" : [ "" ],
					"patching_rect" : [ 248.0, 85.0, 125.0, 22.0 ],
					"text" : "in 2 @comment panic"
				}

			}
, 			{
				"box" : 				{
					"code" : "ode_fun(p, dp, gamma, zeta, Fn, Ymn, wn) {\r\n\tA = zeta * (3 * gamma - 1)/(2 * sqrt(gamma));\r\n\tB = -zeta * (3 * gamma + 1)/(8 * pow(gamma, 3/2));\r\n\tC = -zeta * (gamma + 1)/(16 * pow(gamma, 5/2));\r\n\t\r\n\ty = -pow(wn, 2) * p \r\n        - Fn *(Ymn - A) * dp \r\n\t\t+ 2 * Fn * B * p * dp \r\n\t\t+ 3 * Fn * C * pow(p, 2) * dp; \r\n\t\r\n\treturn y;\r\n}\r\n\r\n\r\nRK4_step(p, dp, h, gamma, zeta, Fn, Ymn, wn) {\r\n\t\r\n\tK1p = h * dp;\r\n\tK1dp = h * ode_fun(p, dp, gamma, zeta, Fn, Ymn, wn);\r\n\t\r\n\tK2p = h * (dp + 1/2*K1dp);\r\n\tK2dp = h * ode_fun(p + 1/2*K1p, dp + 1/2*K1dp, gamma, zeta, Fn, Ymn, wn);\r\n\t\r\n\tK3p = h * (dp + 1/2*K2dp);\r\n\tK3dp = h* ode_fun(p + 1/2*K2p, dp + 1/2*K2dp, gamma, zeta, Fn, Ymn, wn);\r\n\t\r\n\tK4p = h * (dp + K3dp);\r\n\tK4dp = h * ode_fun(p + K3p, dp + K3dp, gamma, zeta, Fn, Ymn, wn);\r\n\t\r\n\t\r\n\tp_out = p + 1/6*(K1p + 2*K2p + 2*K3p + K4p);\r\n\tdp_out = dp + 1/6*(K1dp + 2*K2dp + 2*K3dp + K4dp);\r\n\t\r\n\treturn p_out, dp_out;\r\n}\r\n\r\np_in = in1;\r\ndp_in = in2;\r\nperturbation = in3 * 1e-8;\r\npanic = in4;\r\nwn = in5 * 2 * pi;\r\ngamma = in6; //= 0.5;\r\nzeta = in7; //0.5;\r\nFn = in8;\r\nYmn = in9;\r\nw1 = in10;\r\n//Fn = 1116.0;\r\n//Ymn = 0.0166;\r\n//wn = 869.0;\r\n\r\n\r\n\r\np_out, dp_out = RK4_step(p_in + perturbation, dp_in, 1/samplerate, gamma, zeta, Fn, Ymn, wn);\r\n\r\n\r\nout1 = p_out * panic;\r\nout2 = dp_out * panic;\r\n\r\nout3 = p_out * panic;",
					"fontface" : 0,
					"fontname" : "<Monospaced>",
					"fontsize" : 12.0,
					"id" : "obj-5",
					"maxclass" : "codebox",
					"numinlets" : 10,
					"numoutlets" : 3,
					"outlettype" : [ "", "", "" ],
					"patching_rect" : [ 74.0, 170.0, 906.0, 649.0 ]
				}

			}
 ],
		"lines" : [ 			{
				"patchline" : 				{
					"destination" : [ "obj-5", 1 ],
					"midpoints" : [ 465.5, 867.0, 60.0, 867.0, 60.0, 156.0, 182.055555555555543, 156.0 ],
					"source" : [ "obj-1", 0 ]
				}

			}
, 			{
				"patchline" : 				{
					"destination" : [ "obj-5", 7 ],
					"source" : [ "obj-11", 0 ]
				}

			}
, 			{
				"patchline" : 				{
					"destination" : [ "obj-5", 3 ],
					"source" : [ "obj-13", 0 ]
				}

			}
, 			{
				"patchline" : 				{
					"destination" : [ "obj-5", 2 ],
					"source" : [ "obj-14", 0 ]
				}

			}
, 			{
				"patchline" : 				{
					"destination" : [ "obj-5", 8 ],
					"source" : [ "obj-15", 0 ]
				}

			}
, 			{
				"patchline" : 				{
					"destination" : [ "obj-5", 4 ],
					"source" : [ "obj-17", 0 ]
				}

			}
, 			{
				"patchline" : 				{
					"destination" : [ "obj-5", 9 ],
					"source" : [ "obj-18", 0 ]
				}

			}
, 			{
				"patchline" : 				{
					"destination" : [ "obj-5", 5 ],
					"source" : [ "obj-19", 0 ]
				}

			}
, 			{
				"patchline" : 				{
					"destination" : [ "obj-5", 6 ],
					"source" : [ "obj-20", 0 ]
				}

			}
, 			{
				"patchline" : 				{
					"destination" : [ "obj-5", 0 ],
					"midpoints" : [ 83.5, 858.0, 60.0, 858.0, 60.0, 165.0, 83.5, 165.0 ],
					"source" : [ "obj-3", 0 ]
				}

			}
, 			{
				"patchline" : 				{
					"destination" : [ "obj-1", 0 ],
					"source" : [ "obj-5", 1 ]
				}

			}
, 			{
				"patchline" : 				{
					"destination" : [ "obj-12", 0 ],
					"source" : [ "obj-5", 2 ]
				}

			}
, 			{
				"patchline" : 				{
					"destination" : [ "obj-3", 0 ],
					"source" : [ "obj-5", 0 ]
				}

			}
 ]
	}

}
