{
	"patcher" : 	{
		"fileversion" : 1,
		"appversion" : 		{
			"major" : 8,
			"minor" : 6,
			"revision" : 0,
			"architecture" : "x64",
			"modernui" : 1
		}
,
		"classnamespace" : "dsp.gen",
		"rect" : [ 34.0, 77.0, 1852.0, 939.0 ],
		"bglocked" : 0,
		"openinpresentation" : 0,
		"default_fontsize" : 12.0,
		"default_fontface" : 0,
		"default_fontname" : "Arial",
		"gridonopen" : 1,
		"gridsize" : [ 15.0, 15.0 ],
		"gridsnaponopen" : 1,
		"objectsnaponopen" : 1,
		"statusbarvisible" : 2,
		"toolbarvisible" : 1,
		"lefttoolbarpinned" : 0,
		"toptoolbarpinned" : 0,
		"righttoolbarpinned" : 0,
		"bottomtoolbarpinned" : 0,
		"toolbars_unpinned_last_save" : 0,
		"tallnewobj" : 0,
		"boxanimatetime" : 200,
		"enablehscroll" : 1,
		"enablevscroll" : 1,
		"devicewidth" : 0.0,
		"description" : "",
		"digest" : "",
		"tags" : "",
		"style" : "",
		"subpatcher_template" : "",
		"assistshowspatchername" : 0,
		"boxes" : [ 			{
				"box" : 				{
					"id" : "obj-14",
					"maxclass" : "newobj",
					"numinlets" : 0,
					"numoutlets" : 1,
					"outlettype" : [ "" ],
					"patching_rect" : [ 668.269253075122833, 95.192310869693756, 160.0, 22.0 ],
					"text" : "in 1 @comment perturbation"
				}

			}
, 			{
				"box" : 				{
					"id" : "obj-13",
					"maxclass" : "newobj",
					"numinlets" : 0,
					"numoutlets" : 1,
					"outlettype" : [ "" ],
					"patching_rect" : [ 912.50003045797348, 79.807694971561432, 125.0, 22.0 ],
					"text" : "in 2 @comment panic"
				}

			}
, 			{
				"box" : 				{
					"id" : "obj-10",
					"maxclass" : "newobj",
					"numinlets" : 1,
					"numoutlets" : 0,
					"patching_rect" : [ 541.346171915531158, 720.192331731319427, 35.0, 22.0 ],
					"text" : "out 2"
				}

			}
, 			{
				"box" : 				{
					"id" : "obj-9",
					"maxclass" : "newobj",
					"numinlets" : 1,
					"numoutlets" : 0,
					"patching_rect" : [ 330.769241809844971, 716.346177756786346, 35.0, 22.0 ],
					"text" : "out 1"
				}

			}
, 			{
				"box" : 				{
					"id" : "obj-8",
					"maxclass" : "newobj",
					"numinlets" : 1,
					"numoutlets" : 1,
					"outlettype" : [ "" ],
					"patching_rect" : [ 412.500013768672943, 716.346177756786346, 44.0, 22.0 ],
					"text" : "history"
				}

			}
, 			{
				"box" : 				{
					"id" : "obj-7",
					"maxclass" : "newobj",
					"numinlets" : 1,
					"numoutlets" : 1,
					"outlettype" : [ "" ],
					"patching_rect" : [ 242.105271816253662, 730.097077369689941, 44.0, 22.0 ],
					"text" : "history"
				}

			}
, 			{
				"box" : 				{
					"code" : "ode_fun(p, dp, gamma, zeta, Fn, Ymn, wn) {\r\n\tA = zeta * (3 * gamma - 1)/(2 * sqrt(gamma));\r\n\tB = -zeta * (3 * gamma + 1)/(8 * pow(gamma, 3/2));\r\n\tC = -zeta * (gamma + 1)/(16 * pow(gamma, 5/2));\r\n\t\r\n\ty = -pow(wn, 2) * p \r\n        - Fn *(Ymn - A) * dp \r\n\t\t+ 2 * Fn * B * p * dp \r\n\t\t+ 3 * Fn * C * pow(p, 2) * dp; \r\n\t\r\n\treturn y;\r\n}\r\n\r\n\r\nRK4_step(p, dp, h, gamma, zeta, Fn, Ymn, wn) {\r\n\t\r\n\tK1p = h * dp;\r\n\tK1dp = h * ode_fun(p, dp, gamma, zeta, Fn, Ymn, wn);\r\n\t\r\n\tK2p = h * (dp + 1/2*K1dp);\r\n\tK2dp = h * ode_fun(p + 1/2*K1p, dp + 1/2*K1dp, gamma, zeta, Fn, Ymn, wn);\r\n\t\r\n\tK3p = h * (dp + 1/2*K2dp);\r\n\tK3dp = h* ode_fun(p + 1/2*K2p, dp + 1/2*K2dp, gamma, zeta, Fn, Ymn, wn);\r\n\t\r\n\tK4p = h * (dp + K3dp);\r\n\tK4dp = h * ode_fun(p + K3p, dp + K3dp, gamma, zeta, Fn, Ymn, wn);\r\n\t\r\n\t\r\n\tp_out = p + 1/6*(K1p + 2*K2p + 2*K3p + K4p);\r\n\tdp_out = dp + 1/6*(K1dp + 2*K2dp + 2*K3dp + K4dp);\r\n\t\r\n\treturn p_out, dp_out;\r\n}\r\n\r\n\r\ngamma = 0.5;\r\nzeta = 0.5; \r\nFn = 1116.0;\r\nYmn = 0.0166;\r\nwn = 869.0;\r\n\r\np_in = in1;\r\ndp_in = in2;\r\n\r\nperturbation = in3 * 1e-8;\r\npanic = in4;\r\n\r\np_out, dp_out = RK4_step(p_in + perturbation, dp_in, 1/samplerate, gamma, zeta, Fn, Ymn, wn);\r\n\r\n\r\nout1 = p_out * panic;\r\nout2 = dp_out * panic;",
					"fontface" : 0,
					"fontname" : "<Monospaced>",
					"fontsize" : 12.0,
					"id" : "obj-5",
					"maxclass" : "codebox",
					"numinlets" : 4,
					"numoutlets" : 2,
					"outlettype" : [ "", "" ],
					"patching_rect" : [ 242.105271816253662, 156.842110872268677, 782.105291128158569, 497.894754648208618 ]
				}

			}
 ],
		"lines" : [ 			{
				"patchline" : 				{
					"destination" : [ "obj-5", 3 ],
					"source" : [ "obj-13", 0 ]
				}

			}
, 			{
				"patchline" : 				{
					"destination" : [ "obj-5", 2 ],
					"source" : [ "obj-14", 0 ]
				}

			}
, 			{
				"patchline" : 				{
					"destination" : [ "obj-10", 0 ],
					"order" : 0,
					"source" : [ "obj-5", 1 ]
				}

			}
, 			{
				"patchline" : 				{
					"destination" : [ "obj-7", 0 ],
					"order" : 1,
					"source" : [ "obj-5", 0 ]
				}

			}
, 			{
				"patchline" : 				{
					"destination" : [ "obj-8", 0 ],
					"order" : 1,
					"source" : [ "obj-5", 1 ]
				}

			}
, 			{
				"patchline" : 				{
					"destination" : [ "obj-9", 0 ],
					"order" : 0,
					"source" : [ "obj-5", 0 ]
				}

			}
, 			{
				"patchline" : 				{
					"destination" : [ "obj-5", 0 ],
					"midpoints" : [ 251.605271816253662, 772.582524538040161, 228.0, 772.582524538040161, 228.0, 150.0, 251.605271816253662, 150.0 ],
					"source" : [ "obj-7", 0 ]
				}

			}
, 			{
				"patchline" : 				{
					"destination" : [ "obj-5", 1 ],
					"midpoints" : [ 422.000013768672943, 755.192308366298676, 422.000013768672943, 771.524272084236145, 228.0, 771.524272084236145, 228.0, 141.0, 505.973702192306519, 141.0 ],
					"source" : [ "obj-8", 0 ]
				}

			}
 ]
	}

}
