{
	"patcher" : 	{
		"fileversion" : 1,
		"appversion" : 		{
			"major" : 8,
			"minor" : 6,
			"revision" : 0,
			"architecture" : "x64",
			"modernui" : 1
		}
,
		"classnamespace" : "dsp.gen",
		"rect" : [ 34.0, 77.0, 1375.0, 939.0 ],
		"bglocked" : 0,
		"openinpresentation" : 0,
		"default_fontsize" : 12.0,
		"default_fontface" : 0,
		"default_fontname" : "Arial",
		"gridonopen" : 1,
		"gridsize" : [ 15.0, 15.0 ],
		"gridsnaponopen" : 1,
		"objectsnaponopen" : 1,
		"statusbarvisible" : 2,
		"toolbarvisible" : 1,
		"lefttoolbarpinned" : 0,
		"toptoolbarpinned" : 0,
		"righttoolbarpinned" : 0,
		"bottomtoolbarpinned" : 0,
		"toolbars_unpinned_last_save" : 0,
		"tallnewobj" : 0,
		"boxanimatetime" : 200,
		"enablehscroll" : 1,
		"enablevscroll" : 1,
		"devicewidth" : 0.0,
		"description" : "",
		"digest" : "",
		"tags" : "",
		"style" : "",
		"subpatcher_template" : "",
		"assistshowspatchername" : 0,
		"boxes" : [ 			{
				"box" : 				{
					"id" : "obj-7",
					"maxclass" : "newobj",
					"numinlets" : 1,
					"numoutlets" : 1,
					"outlettype" : [ "" ],
					"patching_rect" : [ 1260.0, 700.0, 44.0, 22.0 ],
					"text" : "history"
				}

			}
, 			{
				"box" : 				{
					"id" : "obj-6",
					"maxclass" : "newobj",
					"numinlets" : 1,
					"numoutlets" : 1,
					"outlettype" : [ "" ],
					"patching_rect" : [ 381.0, 696.0, 44.0, 22.0 ],
					"text" : "history"
				}

			}
, 			{
				"box" : 				{
					"id" : "obj-3",
					"maxclass" : "newobj",
					"numinlets" : 1,
					"numoutlets" : 1,
					"outlettype" : [ "" ],
					"patching_rect" : [ 1020.0, 696.0, 44.0, 22.0 ],
					"text" : "history"
				}

			}
, 			{
				"box" : 				{
					"id" : "obj-1",
					"maxclass" : "newobj",
					"numinlets" : 1,
					"numoutlets" : 1,
					"outlettype" : [ "" ],
					"patching_rect" : [ 91.0, 696.0, 44.0, 22.0 ],
					"text" : "history"
				}

			}
, 			{
				"box" : 				{
					"id" : "obj-20",
					"maxclass" : "newobj",
					"numinlets" : 0,
					"numoutlets" : 1,
					"outlettype" : [ "" ],
					"patching_rect" : [ 1246.0, 64.0, 119.0, 22.0 ],
					"text" : "in 6 @comment zeta"
				}

			}
, 			{
				"box" : 				{
					"id" : "obj-19",
					"maxclass" : "newobj",
					"numinlets" : 0,
					"numoutlets" : 1,
					"outlettype" : [ "" ],
					"patching_rect" : [ 1063.0, 64.0, 136.0, 22.0 ],
					"text" : "in 5 @comment gamma"
				}

			}
, 			{
				"box" : 				{
					"id" : "obj-18",
					"maxclass" : "newobj",
					"numinlets" : 0,
					"numoutlets" : 1,
					"outlettype" : [ "" ],
					"patching_rect" : [ 1708.105291128158569, 104.0, 111.0, 22.0 ],
					"text" : "in 4 @comment w2"
				}

			}
, 			{
				"box" : 				{
					"id" : "obj-17",
					"maxclass" : "newobj",
					"numinlets" : 0,
					"numoutlets" : 1,
					"outlettype" : [ "" ],
					"patching_rect" : [ 885.105291128158569, 59.0, 111.0, 22.0 ],
					"text" : "in 3 @comment w1"
				}

			}
, 			{
				"box" : 				{
					"id" : "obj-16",
					"maxclass" : "newobj",
					"numinlets" : 2,
					"numoutlets" : 1,
					"outlettype" : [ "" ],
					"patching_rect" : [ 969.629597842693329, 817.037010252475739, 29.5, 22.0 ],
					"text" : "+"
				}

			}
, 			{
				"box" : 				{
					"id" : "obj-12",
					"maxclass" : "newobj",
					"numinlets" : 1,
					"numoutlets" : 0,
					"patching_rect" : [ 966.666634976863861, 867.407378971576691, 35.0, 22.0 ],
					"text" : "out 3"
				}

			}
, 			{
				"box" : 				{
					"id" : "obj-4",
					"maxclass" : "newobj",
					"numinlets" : 1,
					"numoutlets" : 0,
					"patching_rect" : [ 1098.0, 715.0, 35.0, 22.0 ],
					"text" : "out 2"
				}

			}
, 			{
				"box" : 				{
					"code" : "ode_fun(p, dp, gamma, zeta, Fn, Ymn, wn) {\r\n\tA = zeta * (3 * gamma - 1)/(2 * sqrt(gamma));\r\n\tB = -zeta * (3 * gamma + 1)/(8 * pow(gamma, 3/2));\r\n\tC = -zeta * (gamma + 1)/(16 * pow(gamma, 5/2));\r\n\t\r\n\ty = -pow(wn, 2) * p \r\n        - Fn *(Ymn - A) * dp \r\n\t\t+ 2 * Fn * B * p * dp \r\n\t\t+ 3 * Fn * C * pow(p, 2) * dp; \r\n\t\r\n\treturn y;\r\n}\r\n\r\n\r\nRK4_step(p, dp, h, gamma, zeta, Fn, Ymn, wn) {\r\n\t\r\n\tK1p = h * dp;\r\n\tK1dp = h * ode_fun(p, dp, gamma, zeta, Fn, Ymn, wn);\r\n\t\r\n\tK2p = h * (dp + 1/2*K1dp);\r\n\tK2dp = h * ode_fun(p + 1/2*K1p, dp + 1/2*K1dp, gamma, zeta, Fn, Ymn, wn);\r\n\t\r\n\tK3p = h * (dp + 1/2*K2dp);\r\n\tK3dp = h* ode_fun(p + 1/2*K2p, dp + 1/2*K2dp, gamma, zeta, Fn, Ymn, wn);\r\n\t\r\n\tK4p = h * (dp + K3dp);\r\n\tK4dp = h * ode_fun(p + K3p, dp + K3dp, gamma, zeta, Fn, Ymn, wn);\r\n\t\r\n\t\r\n\tp_out = p + 1/6*(K1p + 2*K2p + 2*K3p + K4p);\r\n\tdp_out = dp + 1/6*(K1dp + 2*K2dp + 2*K3dp + K4dp);\r\n\t\r\n\treturn p_out, dp_out;\r\n}\r\n\r\n\r\ngamma = in6 ;//= 0.5;\r\nzeta = in7 ; //0.5;  \r\nFn = 1116.0;\r\nYmn = 0.0166;\r\n//wn = 869.0 * 3;\r\nwn = in5 * 2.0 * pi;\r\n\r\n\r\np_in = in1;\r\ndp_in = in2;\r\n\r\nperturbation = in3 * 1e-8;\r\npanic = in4;\r\n\r\np_out, dp_out = RK4_step(p_in + perturbation, dp_in, 1/samplerate, gamma, zeta, Fn, Ymn, wn);\r\n\r\n\r\nout1 = p_out * panic;\r\nout2 = dp_out * panic;\r\n\r\nout3 = p_out * panic / wn;",
					"fontface" : 0,
					"fontname" : "<Monospaced>",
					"fontsize" : 12.0,
					"id" : "obj-2",
					"maxclass" : "codebox",
					"numinlets" : 7,
					"numoutlets" : 3,
					"outlettype" : [ "", "", "" ],
					"patching_rect" : [ 1063.0, 157.0, 782.105291128158569, 497.894754648208618 ]
				}

			}
, 			{
				"box" : 				{
					"id" : "obj-14",
					"maxclass" : "newobj",
					"numinlets" : 0,
					"numoutlets" : 1,
					"outlettype" : [ "" ],
					"patching_rect" : [ 418.0, 51.0, 160.0, 22.0 ],
					"text" : "in 1 @comment perturbation"
				}

			}
, 			{
				"box" : 				{
					"id" : "obj-13",
					"maxclass" : "newobj",
					"numinlets" : 0,
					"numoutlets" : 1,
					"outlettype" : [ "" ],
					"patching_rect" : [ 667.0, 51.0, 125.0, 22.0 ],
					"text" : "in 2 @comment panic"
				}

			}
, 			{
				"box" : 				{
					"id" : "obj-9",
					"maxclass" : "newobj",
					"numinlets" : 1,
					"numoutlets" : 0,
					"patching_rect" : [ 210.0, 751.0, 35.0, 22.0 ],
					"text" : "out 1"
				}

			}
, 			{
				"box" : 				{
					"code" : "ode_fun(p, dp, gamma, zeta, Fn, Ymn, wn) {\r\n\tA = zeta * (3 * gamma - 1)/(2 * sqrt(gamma));\r\n\tB = -zeta * (3 * gamma + 1)/(8 * pow(gamma, 3/2));\r\n\tC = -zeta * (gamma + 1)/(16 * pow(gamma, 5/2));\r\n\t\r\n\ty = -pow(wn, 2) * p \r\n        - Fn *(Ymn - A) * dp \r\n\t\t+ 2 * Fn * B * p * dp \r\n\t\t+ 3 * Fn * C * pow(p, 2) * dp; \r\n\t\r\n\treturn y;\r\n}\r\n\r\n\r\nRK4_step(p, dp, h, gamma, zeta, Fn, Ymn, wn) {\r\n\t\r\n\tK1p = h * dp;\r\n\tK1dp = h * ode_fun(p, dp, gamma, zeta, Fn, Ymn, wn);\r\n\t\r\n\tK2p = h * (dp + 1/2*K1dp);\r\n\tK2dp = h * ode_fun(p + 1/2*K1p, dp + 1/2*K1dp, gamma, zeta, Fn, Ymn, wn);\r\n\t\r\n\tK3p = h * (dp + 1/2*K2dp);\r\n\tK3dp = h* ode_fun(p + 1/2*K2p, dp + 1/2*K2dp, gamma, zeta, Fn, Ymn, wn);\r\n\t\r\n\tK4p = h * (dp + K3dp);\r\n\tK4dp = h * ode_fun(p + K3p, dp + K3dp, gamma, zeta, Fn, Ymn, wn);\r\n\t\r\n\t\r\n\tp_out = p + 1/6*(K1p + 2*K2p + 2*K3p + K4p);\r\n\tdp_out = dp + 1/6*(K1dp + 2*K2dp + 2*K3dp + K4dp);\r\n\t\r\n\treturn p_out, dp_out;\r\n}\r\n\r\n\r\ngamma = in6 ;//= 0.5;\r\nzeta = in7 ; //0.5; \r\nFn = 1116.0;\r\nYmn = 0.0166;\r\n//wn = 869.0;\r\nwn = in5 * 2.0 * pi;\r\n\r\np_in = in1;\r\ndp_in = in2;\r\n\r\nperturbation = in3 * 1e-8;\r\npanic = in4;\r\n\r\np_out, dp_out = RK4_step(p_in + perturbation, dp_in, 1/samplerate, gamma, zeta, Fn, Ymn, wn);\r\n\r\n\r\nout1 = p_out * panic;\r\nout2 = dp_out * panic;\r\n\r\nout3 = p_out * panic / wn;",
					"fontface" : 0,
					"fontname" : "<Monospaced>",
					"fontsize" : 12.0,
					"id" : "obj-5",
					"maxclass" : "codebox",
					"numinlets" : 7,
					"numoutlets" : 3,
					"outlettype" : [ "", "", "" ],
					"patching_rect" : [ 122.0, 157.0, 782.105291128158569, 497.894754648208618 ]
				}

			}
 ],
		"lines" : [ 			{
				"patchline" : 				{
					"destination" : [ "obj-5", 0 ],
					"midpoints" : [ 100.5, 720.0, 78.0, 720.0, 78.0, 153.0, 131.5, 153.0 ],
					"source" : [ "obj-1", 0 ]
				}

			}
, 			{
				"patchline" : 				{
					"destination" : [ "obj-2", 3 ],
					"order" : 0,
					"source" : [ "obj-13", 0 ]
				}

			}
, 			{
				"patchline" : 				{
					"destination" : [ "obj-5", 3 ],
					"order" : 1,
					"source" : [ "obj-13", 0 ]
				}

			}
, 			{
				"patchline" : 				{
					"destination" : [ "obj-2", 2 ],
					"order" : 0,
					"source" : [ "obj-14", 0 ]
				}

			}
, 			{
				"patchline" : 				{
					"destination" : [ "obj-5", 2 ],
					"order" : 1,
					"source" : [ "obj-14", 0 ]
				}

			}
, 			{
				"patchline" : 				{
					"destination" : [ "obj-12", 0 ],
					"source" : [ "obj-16", 0 ]
				}

			}
, 			{
				"patchline" : 				{
					"destination" : [ "obj-5", 4 ],
					"source" : [ "obj-17", 0 ]
				}

			}
, 			{
				"patchline" : 				{
					"destination" : [ "obj-2", 4 ],
					"source" : [ "obj-18", 0 ]
				}

			}
, 			{
				"patchline" : 				{
					"destination" : [ "obj-2", 5 ],
					"order" : 0,
					"source" : [ "obj-19", 0 ]
				}

			}
, 			{
				"patchline" : 				{
					"destination" : [ "obj-5", 5 ],
					"order" : 1,
					"source" : [ "obj-19", 0 ]
				}

			}
, 			{
				"patchline" : 				{
					"destination" : [ "obj-16", 1 ],
					"source" : [ "obj-2", 2 ]
				}

			}
, 			{
				"patchline" : 				{
					"destination" : [ "obj-3", 0 ],
					"order" : 1,
					"source" : [ "obj-2", 0 ]
				}

			}
, 			{
				"patchline" : 				{
					"destination" : [ "obj-4", 0 ],
					"order" : 0,
					"source" : [ "obj-2", 0 ]
				}

			}
, 			{
				"patchline" : 				{
					"destination" : [ "obj-7", 0 ],
					"source" : [ "obj-2", 1 ]
				}

			}
, 			{
				"patchline" : 				{
					"destination" : [ "obj-2", 6 ],
					"order" : 0,
					"source" : [ "obj-20", 0 ]
				}

			}
, 			{
				"patchline" : 				{
					"destination" : [ "obj-5", 6 ],
					"order" : 1,
					"source" : [ "obj-20", 0 ]
				}

			}
, 			{
				"patchline" : 				{
					"destination" : [ "obj-2", 0 ],
					"midpoints" : [ 1029.5, 720.0, 1005.0, 720.0, 1005.0, 153.0, 1072.5, 153.0 ],
					"source" : [ "obj-3", 0 ]
				}

			}
, 			{
				"patchline" : 				{
					"destination" : [ "obj-1", 0 ],
					"order" : 1,
					"source" : [ "obj-5", 0 ]
				}

			}
, 			{
				"patchline" : 				{
					"destination" : [ "obj-16", 0 ],
					"source" : [ "obj-5", 2 ]
				}

			}
, 			{
				"patchline" : 				{
					"destination" : [ "obj-6", 0 ],
					"source" : [ "obj-5", 1 ]
				}

			}
, 			{
				"patchline" : 				{
					"destination" : [ "obj-9", 0 ],
					"order" : 0,
					"source" : [ "obj-5", 0 ]
				}

			}
, 			{
				"patchline" : 				{
					"destination" : [ "obj-5", 1 ],
					"midpoints" : [ 390.5, 723.0, 79.0, 723.0, 79.0, 666.0, 79.0, 666.0, 79.0, 144.0, 258.684215188026428, 144.0 ],
					"source" : [ "obj-6", 0 ]
				}

			}
, 			{
				"patchline" : 				{
					"destination" : [ "obj-2", 1 ],
					"midpoints" : [ 1269.5, 723.0, 1143.0, 723.0, 1143.0, 666.0, 1050.0, 666.0, 1050.0, 144.0, 1199.684215188026428, 144.0 ],
					"source" : [ "obj-7", 0 ]
				}

			}
 ]
	}

}
