{
	"patcher" : 	{
		"fileversion" : 1,
		"appversion" : 		{
			"major" : 8,
			"minor" : 6,
			"revision" : 0,
			"architecture" : "x64",
			"modernui" : 1
		}
,
		"classnamespace" : "dsp.gen",
		"rect" : [ 995.0, 85.0, 890.0, 930.0 ],
		"bglocked" : 0,
		"openinpresentation" : 0,
		"default_fontsize" : 12.0,
		"default_fontface" : 0,
		"default_fontname" : "Arial",
		"gridonopen" : 1,
		"gridsize" : [ 15.0, 15.0 ],
		"gridsnaponopen" : 1,
		"objectsnaponopen" : 1,
		"statusbarvisible" : 2,
		"toolbarvisible" : 1,
		"lefttoolbarpinned" : 0,
		"toptoolbarpinned" : 0,
		"righttoolbarpinned" : 0,
		"bottomtoolbarpinned" : 0,
		"toolbars_unpinned_last_save" : 0,
		"tallnewobj" : 0,
		"boxanimatetime" : 200,
		"enablehscroll" : 1,
		"enablevscroll" : 1,
		"devicewidth" : 0.0,
		"description" : "",
		"digest" : "",
		"tags" : "",
		"style" : "",
		"subpatcher_template" : "",
		"assistshowspatchername" : 0,
		"boxes" : [ 			{
				"box" : 				{
					"id" : "obj-2",
					"maxclass" : "newobj",
					"numinlets" : 0,
					"numoutlets" : 1,
					"outlettype" : [ "" ],
					"patching_rect" : [ 824.0, 48.0, 125.0, 22.0 ],
					"text" : "in 2 @comment panic"
				}

			}
, 			{
				"box" : 				{
					"id" : "obj-6",
					"maxclass" : "newobj",
					"numinlets" : 0,
					"numoutlets" : 1,
					"outlettype" : [ "" ],
					"patching_rect" : [ 1051.0, 202.0, 250.0, 22.0 ],
					"text" : "param lambda @default 0. @min 0. @max 1."
				}

			}
, 			{
				"box" : 				{
					"id" : "obj-5",
					"maxclass" : "newobj",
					"numinlets" : 0,
					"numoutlets" : 1,
					"outlettype" : [ "" ],
					"patching_rect" : [ 1052.0, 170.0, 233.0, 22.0 ],
					"text" : "param zeta @default 0. @min 0. @max 2."
				}

			}
, 			{
				"box" : 				{
					"id" : "obj-3",
					"maxclass" : "newobj",
					"numinlets" : 0,
					"numoutlets" : 1,
					"outlettype" : [ "" ],
					"patching_rect" : [ 1050.0, 141.0, 250.0, 22.0 ],
					"text" : "param gamma @default 0. @min 0. @max 2."
				}

			}
, 			{
				"box" : 				{
					"code" : "X(Y, zeta) {\n\tpsi = 1/pow(zeta,2);\n\tmu = 9/2 * (3*Y - 1);\n\tif (Y >= 0 && Y <= 1){ // non-beating reed case, positive flow u > 0\n        eta = sqrt(3 + psi);\n\t\treturn pow(-2/3 * eta * sin(1/3 * asin((psi-mu)/(zeta * pow(eta,3)))) + 1/(3*zeta), 2);\n\t\r\n\t} else {\n        if (Y < 0) { // non-beating reed case, negative flow u < 0\n            q = 1/9 * (3 - psi);\n            r = -(psi + mu)/(27*zeta);\n            discr = pow(q, 3) + pow(r, 2);\n            if (discr >= 0) { //# In the paper it is written for discr > 0\n                s = pow(r + sqrt(discr), 1/3);\n                return -pow(s - q/s - 1/(3 * zeta),2);\n            }\n            if (discr < 0) {\n                eta2 = sqrt(-3 + psi);\n                return -pow(2/3 * eta2 * cos(1/3 * acos(- (psi+mu)/(zeta * pow(eta2,3)))) - 1/(3*zeta), 2);\n            }\n        \r\n\t\t} else {\n            if (Y > 1) {\n\t\t\t    return Y;\n            }\n\t\t}\n\t}\n}\r\n\r\n\r\np_moins = in1;\r\npanic = in2;\r\n\r\nY = gamma - 2 * p_moins;\r\np_plus = gamma - X(Y, zeta) - p_moins;\r\n\r\nout1 = tanh(p_plus) * panic;\r\n\r\n",
					"fontface" : 0,
					"fontname" : "<Monospaced>",
					"fontsize" : 12.0,
					"id" : "obj-10",
					"maxclass" : "codebox",
					"numinlets" : 2,
					"numoutlets" : 1,
					"outlettype" : [ "" ],
					"patching_rect" : [ 139.0, 141.0, 897.0, 699.0 ]
				}

			}
, 			{
				"box" : 				{
					"id" : "obj-1",
					"maxclass" : "newobj",
					"numinlets" : 0,
					"numoutlets" : 1,
					"outlettype" : [ "" ],
					"patching_rect" : [ 139.0, 63.0, 143.0, 22.0 ],
					"text" : "in 1 @comment signal_in"
				}

			}
, 			{
				"box" : 				{
					"id" : "obj-4",
					"maxclass" : "newobj",
					"numinlets" : 1,
					"numoutlets" : 0,
					"patching_rect" : [ 135.0, 892.0, 158.0, 22.0 ],
					"text" : "out 1 @comment signal_out"
				}

			}
 ],
		"lines" : [ 			{
				"patchline" : 				{
					"destination" : [ "obj-10", 0 ],
					"source" : [ "obj-1", 0 ]
				}

			}
, 			{
				"patchline" : 				{
					"destination" : [ "obj-4", 0 ],
					"source" : [ "obj-10", 0 ]
				}

			}
, 			{
				"patchline" : 				{
					"destination" : [ "obj-10", 1 ],
					"source" : [ "obj-2", 0 ]
				}

			}
 ]
	}

}
